<?xml version="1.0" encoding="UTF-8"?>
<svg version="1.1" xmlns="http://www.w3.org/2000/svg" width="32" height="32">
<path d="M0 0 C1.46953125 0.02126953 1.46953125 0.02126953 2.96875 0.04296875 C4.43828125 0.05263672 4.43828125 0.05263672 5.9375 0.0625 C8.46875 0.23046875 8.46875 0.23046875 10.46875 1.23046875 C10.46875 1.89046875 10.46875 2.55046875 10.46875 3.23046875 C11.396875 3.06546875 12.325 2.90046875 13.28125 2.73046875 C16.46875 2.23046875 16.46875 2.23046875 19.46875 2.23046875 C19.46875 3.55046875 19.46875 4.87046875 19.46875 6.23046875 C18.80875 6.23046875 18.14875 6.23046875 17.46875 6.23046875 C17.63375 7.01421875 17.79875 7.79796875 17.96875 8.60546875 C19.83102951 22.10699521 19.83102951 22.10699521 16.46875 27.23046875 C14.03125 28.41796875 14.03125 28.41796875 11.46875 29.23046875 C10.47875 29.89046875 9.48875 30.55046875 8.46875 31.23046875 C5.15894439 32.88537156 1.99863636 33.15269131 -1.53125 32.23046875 C-3.69605132 30.3094703 -5.35622931 28.29747321 -7.0859375 25.98046875 C-7.80136719 25.11421875 -7.80136719 25.11421875 -8.53125 24.23046875 C-9.19125 24.23046875 -9.85125 24.23046875 -10.53125 24.23046875 C-12.33333945 18.18816884 -13.46333464 13.21979331 -10.56640625 7.23828125 C-9.60718133 5.53830257 -8.57483446 3.88000548 -7.53125 2.23046875 C-6.54125 2.23046875 -5.55125 2.23046875 -4.53125 2.23046875 C-2.53125 0.23046875 -2.53125 0.23046875 0 0 Z " fill="#A143C4" transform="translate(12.53125,-0.23046875)"/>
<path d="M0 0 C0.9796875 -0.00257812 1.959375 -0.00515625 2.96875 -0.0078125 C5.5 0.125 5.5 0.125 7.5 1.125 C7.5 1.785 7.5 2.445 7.5 3.125 C8.428125 2.96 9.35625 2.795 10.3125 2.625 C13.5 2.125 13.5 2.125 16.5 2.125 C16.5 3.445 16.5 4.765 16.5 6.125 C15.84 6.125 15.18 6.125 14.5 6.125 C14.665 6.90875 14.83 7.6925 15 8.5 C16.91383648 22.37531447 16.91383648 22.37531447 13.5 27.125 C10.1875 28.6875 10.1875 28.6875 6.5 29.125 C3.5625 27.25 3.5625 27.25 1.5 25.125 C2.11198376 21.68549636 3.42058847 19.60935515 5.5625 16.875 C6.11035156 16.16859375 6.65820312 15.4621875 7.22265625 14.734375 C7.64417969 14.20328125 8.06570312 13.6721875 8.5 13.125 C6.74902279 11.37402279 4.06302858 12.04021451 1.6875 12 C-3.96564503 11.59620393 -3.96564503 11.59620393 -6.21875 9.609375 C-7.3125 7.75 -7.3125 7.75 -8.5 4.125 C-8.17 3.135 -7.84 2.145 -7.5 1.125 C-4.89080172 -0.17959914 -2.91057385 -0.0076594 0 0 Z " fill="#28203F" transform="translate(15.5,-0.125)"/>
<path d="M0 0 C2.042739 3.38024668 2.26976872 6.01835066 2.25 9.9375 C2.25515625 10.95714844 2.2603125 11.97679687 2.265625 13.02734375 C1.98935937 16.1190812 1.46700212 18.26800916 0 21 C-3.3125 22.5625 -3.3125 22.5625 -7 23 C-9.9375 21.125 -9.9375 21.125 -12 19 C-11.23996003 14.74377616 -9.04567522 12.28698489 -6.375 9 C-4.97432665 6.96265695 -4.43113101 5.41433364 -4 3 C-3.34 3.33 -2.68 3.66 -2 4 C-1.34 2.68 -0.68 1.36 0 0 Z " fill="#160628" transform="translate(29,6)"/>
<path d="M0 0 C3 1 3 1 4.3125 3.1875 C5.19103955 6.78152544 4.39417805 8.62462156 3 12 C2.67 12.99 2.34 13.98 2 15 C3.11375 14.95875 4.2275 14.9175 5.375 14.875 C9 15 9 15 11 17 C10.75558954 19.52557477 10.17639341 20.7852602 8.5625 22.75 C7 24 7 24 5 24 C0.79149253 20.21234327 -2.1874911 16.68756228 -3 11 C-2.6345626 6.90710115 -2.12862517 3.54770861 0 0 Z " fill="#260A37" transform="translate(3,5)"/>
<path d="M0 0 C1.98091434 1.79225583 3.05172478 3.11158985 4.19140625 5.5703125 C5.82058959 8.321789 5.82058959 8.321789 9.1015625 8.63671875 C10.26429687 8.65347656 11.42703125 8.67023437 12.625 8.6875 C14.75208388 8.73210772 16.87991884 8.82186646 19 9 C19.33 9.66 19.66 10.32 20 11 C18.68 12.32 17.36 13.64 16 15 C16 14.34 16 13.68 16 13 C14.68 13 13.36 13 12 13 C12 13.66 12 14.32 12 15 C11.01 15 10.02 15 9 15 C9 14.34 9 13.68 9 13 C7.68 13 6.36 13 5 13 C4.67 13.66 4.34 14.32 4 15 C3.34 15 2.68 15 2 15 C0.875 10.25 0.875 10.25 2 8 C1.505 7.195625 1.01 6.39125 0.5 5.5625 C0.005 4.716875 -0.49 3.87125 -1 3 C-0.67 2.01 -0.34 1.02 0 0 Z " fill="#B06DE7" transform="translate(5,2)"/>
<path d="M0 0 C0.66 0.33 1.32 0.66 2 1 C2 2.32 2 3.64 2 5 C0.68 5 -0.64 5 -2 5 C-2 6.65 -2 8.3 -2 10 C-3.32 10 -4.64 10 -6 10 C-6.33 10.33 -6.66 10.66 -7 11 C-9.02408755 10.90997602 -11.04544287 10.75358962 -13.0625 10.5625 C-14.16722656 10.46066406 -15.27195312 10.35882813 -16.41015625 10.25390625 C-17.26480469 10.17011719 -18.11945312 10.08632812 -19 10 C-19 9.67 -19 9.34 -19 9 C-17.35 9 -15.7 9 -14 9 C-13.7834375 8.0409375 -13.7834375 8.0409375 -13.5625 7.0625 C-13 5 -13 5 -12 4 C-10.33382885 3.95936168 -8.66611905 3.957279 -7 4 C-7 3.34 -7 2.68 -7 2 C-6.030625 1.855625 -5.06125 1.71125 -4.0625 1.5625 C-1.13513227 1.32437659 -1.13513227 1.32437659 0 0 Z " fill="#9B9881" transform="translate(30,1)"/>
<path d="M0 0 C1.485 0.99 1.485 0.99 3 2 C5.64632287 1.6878236 5.64632287 1.6878236 8 1 C8 1.66 8 2.32 8 3 C8.99 3 9.98 3 11 3 C11 2.34 11 1.68 11 1 C12.32 1 13.64 1 15 1 C13.86500606 4.29148243 13.00716624 4.9959869 9.875 6.75 C8.92625 7.1625 7.9775 7.575 7 8 C6.67 7.67 6.34 7.34 6 7 C3.67182036 6.63239269 1.3381615 6.29758419 -1 6 C-1.042721 4.33388095 -1.04063832 2.66617115 -1 1 C-0.67 0.67 -0.34 0.34 0 0 Z " fill="#6923CE" transform="translate(6,14)"/>
<path d="M0 0 C0.99 0.33 1.98 0.66 3 1 C4.1875 3.5625 4.1875 3.5625 5 6 C3.35 6.66 1.7 7.32 0 8 C0.99 11.3 1.98 14.6 3 18 C1.68 18.33 0.36 18.66 -1 19 C-2.87544075 12.71175748 -3.66692396 7.82411967 -0.9375 1.5625 C-0.628125 1.046875 -0.31875 0.53125 0 0 Z " fill="#321844" transform="translate(3,5)"/>
<path d="M0 0 C0.66 0.33 1.32 0.66 2 1 C2 2.32 2 3.64 2 5 C0.68 5 -0.64 5 -2 5 C-2 6.65 -2 8.3 -2 10 C-3.32 9.34 -4.64 8.68 -6 8 C-5.8125 5.6875 -5.8125 5.6875 -5 3 C-2.5625 1.125 -2.5625 1.125 0 0 Z " fill="#6E824E" transform="translate(30,1)"/>
<path d="M0 0 C0 0.99 0 1.98 0 3 C-0.66 3.66 -1.32 4.32 -2 5 C-2.3373846 8.12498166 -2.3373846 8.12498166 0 10.1875 C0.66 10.785625 1.32 11.38375 2 12 C-4.875 11.125 -4.875 11.125 -6 10 C-6.4375 7.1875 -6.4375 7.1875 -6 4 C-3 1.625 -3 1.625 0 0 Z " fill="#B75BD5" transform="translate(20,17)"/>
<path d="M0 0 C2.14336161 3.4766338 2.21277626 6.21229195 2.125 10.25 C2.10695313 11.32765625 2.08890625 12.4053125 2.0703125 13.515625 C2.03550781 14.74539062 2.03550781 14.74539062 2 16 C1.01 15.34 0.02 14.68 -1 14 C-1.328125 10.99609375 -1.328125 10.99609375 -1.25 7.4375 C-1.22679688 5.67212891 -1.22679688 5.67212891 -1.203125 3.87109375 C-1 1 -1 1 0 0 Z " fill="#46105C" transform="translate(29,6)"/>
<path d="M0 0 C1.43088528 2.86177057 0.59991697 4.93375773 0 8 C0.66 8 1.32 8 2 8 C2.66 9.65 3.32 11.3 4 13 C2.68 13.33 1.36 13.66 0 14 C-1.71084699 8.48727081 -2.4606443 5.46809845 0 0 Z " fill="#420E63" transform="translate(2,10)"/>
<path d="M0 0 C1.09658936 3.28976808 0.79953138 4.71303767 0 8 C1.32 8.33 2.64 8.66 4 9 C4 9.66 4 10.32 4 11 C2.68 11.33 1.36 11.66 0 12 C-1.42258812 8.17679443 -2.24042276 5.08718695 -2 1 C-1.34 0.67 -0.68 0.34 0 0 Z " fill="#0C0722" transform="translate(5,12)"/>
<path d="M0 0 C4.875 1.75 4.875 1.75 6 4 C3 6 3 6 0.875 5.8125 C0.25625 5.544375 -0.3625 5.27625 -1 5 C-1.33 4.01 -1.66 3.02 -2 2 C-1.34 1.34 -0.68 0.68 0 0 Z " fill="#4D3C6E" transform="translate(9,2)"/>
<path d="M0 0 C0.66 0.33 1.32 0.66 2 1 C1.67 2.32 1.34 3.64 1 5 C-0.48117801 4.71872579 -1.95993249 4.42466268 -3.4375 4.125 C-4.26121094 3.96257812 -5.08492187 3.80015625 -5.93359375 3.6328125 C-6.61550781 3.42398437 -7.29742187 3.21515625 -8 3 C-8.33 2.34 -8.66 1.68 -9 1 C-5.77390955 -0.07536348 -3.37822416 -0.14375422 0 0 Z " fill="#492B61" transform="translate(21,0)"/>
<path d="M0 0 C2.61724095 2.36797991 4.32861729 4.89600354 6 8 C6 8.66 6 9.32 6 10 C2.19118361 8.55527654 0.70257114 6.67396929 -1 3 C-0.67 2.01 -0.34 1.02 0 0 Z " fill="#A268BA" transform="translate(5,2)"/>
<path d="M0 0 C0 0.99 0 1.98 0 3 C-2.31 3.66 -4.62 4.32 -7 5 C-7.66 4.01 -8.32 3.02 -9 2 C-5.86501708 0.14223235 -3.62528568 -0.20140476 0 0 Z " fill="#240830" transform="translate(29,24)"/>
<path d="M0 0 C2.97 0.495 2.97 0.495 6 1 C5.34 2.32 4.68 3.64 4 5 C2.68 4.67 1.36 4.34 0 4 C0 2.68 0 1.36 0 0 Z " fill="#5FB546" transform="translate(17,6)"/>
<path d="M0 0 C0.66 0 1.32 0 2 0 C2.33 1.65 2.66 3.3 3 5 C1.02 5.33 -0.96 5.66 -3 6 C-1.125 1.125 -1.125 1.125 0 0 Z " fill="#4E296B" transform="translate(23,15)"/>
<path d="M0 0 C1.68762851 1.6454378 3.3540349 3.31288577 5 5 C5 5.33 5 5.66 5 6 C3.02 6 1.04 6 -1 6 C-1.042721 4.33388095 -1.04063832 2.66617115 -1 1 C-0.67 0.67 -0.34 0.34 0 0 Z " fill="#4F2D70" transform="translate(6,14)"/>
<path d="" fill="#000000" transform="translate(0,0)"/>
<path d="" fill="#000000" transform="translate(0,0)"/>
<path d="" fill="#000000" transform="translate(0,0)"/>
<path d="" fill="#200020" transform="translate(0,0)"/>
<path d="" fill="#000000" transform="translate(0,0)"/>
<path d="" fill="#000000" transform="translate(0,0)"/>
<path d="" fill="#000000" transform="translate(0,0)"/>
<path d="" fill="#000000" transform="translate(0,0)"/>
<path d="" fill="#000000" transform="translate(0,0)"/>
<path d="" fill="#000000" transform="translate(0,0)"/>
<path d="" fill="#1F0F27" transform="translate(0,0)"/>
</svg>
